<?xml version="1.0" encoding="UTF-8" standalone="no"?>
<svg width="49px" height="49px" viewBox="0 0 49 49" version="1.1" xmlns="http://www.w3.org/2000/svg" xmlns:xlink="http://www.w3.org/1999/xlink" xmlns:sketch="http://www.bohemiancoding.com/sketch/ns">
    <!-- Generator: Sketch 3.3.1 (12005) - http://www.bohemiancoding.com/sketch -->
    <title>earth94</title>
    <desc>Created with Sketch.</desc>
    <defs></defs>
    <g id="Page-1" stroke="none" stroke-width="1" fill="none" fill-rule="evenodd" sketch:type="MSPage">
        <g id="earth94" sketch:type="MSLayerGroup" fill="#FFFFFF">
            <path d="M44.268,10.32 C43.897,9.796 43.51,9.285 43.098,8.793 C38.624,3.424 31.891,0 24.374,0 C24.36,0 24.349,0.001 24.337,0.001 C24.329,0.001 24.323,0 24.315,0 C24.288,0 24.26,0.003 24.231,0.003 C16.771,0.046 10.097,3.46 5.649,8.793 C5.239,9.286 4.85,9.796 4.479,10.32 C1.663,14.295 0,19.142 0,24.374 C0,29.605 1.662,34.454 4.479,38.428 C4.85,38.952 5.239,39.463 5.649,39.955 C10.096,45.288 16.77,48.702 24.231,48.745 C24.26,48.745 24.288,48.748 24.315,48.748 C24.323,48.748 24.329,48.747 24.336,48.747 C24.348,48.747 24.359,48.748 24.373,48.748 C31.891,48.748 38.623,45.325 43.098,39.956 C43.508,39.464 43.897,38.952 44.268,38.428 C47.084,34.453 48.747,29.606 48.747,24.373 C48.747,19.143 47.084,14.295 44.268,10.32 L44.268,10.32 Z M17.249,3.17 C15.009,5.331 13.147,8.49 11.864,12.281 C10.145,11.639 8.598,10.866 7.264,9.992 C9.879,6.886 13.318,4.494 17.249,3.17 L17.249,3.17 Z M6.09,11.521 C7.606,12.533 9.358,13.418 11.295,14.147 C10.459,17.201 9.979,20.591 9.961,24.168 L2.004,24.168 C2.047,19.463 3.562,15.109 6.09,11.521 L6.09,11.521 Z M2.079,26.168 L10,26.168 C10.129,29.162 10.584,32.003 11.293,34.602 C9.355,35.331 7.604,36.216 6.09,37.229 C3.849,34.048 2.404,30.266 2.079,26.168 L2.079,26.168 Z M7.27,38.752 C8.604,37.88 10.147,37.109 11.862,36.467 C13.145,40.259 15.008,43.416 17.249,45.577 C13.318,44.254 9.886,41.857 7.27,38.752 L7.27,38.752 Z M23.374,46.676 C19.27,46.114 15.728,41.905 13.72,35.843 C16.615,34.975 19.892,34.449 23.374,34.364 L23.374,46.676 L23.374,46.676 Z M23.374,32.366 C19.702,32.454 16.241,33.021 13.159,33.967 C12.528,31.571 12.124,28.942 12.003,26.169 L23.374,26.169 L23.374,32.366 L23.374,32.366 Z M23.374,24.168 L11.961,24.168 C11.979,20.809 12.416,17.636 13.168,14.784 C16.246,15.727 19.705,16.295 23.373,16.382 L23.373,24.168 L23.374,24.168 Z M23.374,14.384 C19.894,14.299 16.618,13.775 13.726,12.907 C15.733,6.848 19.272,2.635 23.374,2.072 L23.374,14.384 L23.374,14.384 Z M46.741,24.168 L38.669,24.168 C38.651,20.606 38.177,17.23 37.347,14.187 C39.327,13.451 41.116,12.552 42.657,11.522 C45.184,15.11 46.698,19.463 46.741,24.168 L46.741,24.168 Z M41.481,9.994 C40.12,10.885 38.538,11.67 36.778,12.319 C35.483,8.476 33.594,5.279 31.319,3.11 C35.323,4.421 38.825,6.84 41.481,9.994 L41.481,9.994 Z M25.374,2.087 C29.433,2.714 32.929,6.919 34.915,12.937 C32.05,13.786 28.811,14.3 25.374,14.384 L25.374,2.087 L25.374,2.087 Z M25.374,16.383 C28.999,16.297 32.419,15.741 35.47,14.818 C36.218,17.662 36.652,20.823 36.669,24.169 L25.374,24.169 L25.374,16.383 L25.374,16.383 Z M25.374,26.168 L36.628,26.168 C36.507,28.928 36.105,31.545 35.48,33.934 C32.425,33.008 29.001,32.453 25.376,32.366 L25.374,26.168 L25.374,26.168 Z M25.374,46.661 L25.374,34.365 C28.813,34.449 32.052,34.963 34.921,35.812 C32.932,41.832 29.432,46.034 25.374,46.661 L25.374,46.661 Z M31.319,45.639 C33.594,43.471 35.487,40.276 36.782,36.432 C38.538,37.08 40.118,37.864 41.477,38.753 C38.821,41.906 35.323,44.327 31.319,45.639 L31.319,45.639 Z M42.657,37.229 C41.116,36.199 39.327,35.298 37.346,34.563 C38.048,31.975 38.499,29.147 38.626,26.169 L46.667,26.169 C46.342,30.266 44.901,34.049 42.657,37.229 L42.657,37.229 Z" id="Shape" sketch:type="MSShapeGroup"></path>
        </g>
    </g>
</svg>